<svg width="269" height="56" viewBox="0 0 269 56" fill="none" xmlns="http://www.w3.org/2000/svg">
<path fill-rule="evenodd" clip-rule="evenodd" d="M16.6035 0H39.318C48.4269 0 55.9216 7.50515 55.8063 16.6268V39.3732C55.8063 48.4948 48.3116 56 39.2027 56H16.6035C7.49464 56 0 48.4948 0 39.2577V16.6268C0 7.50515 7.49464 0 16.6035 0ZM43.8148 37.0639C44.8525 37.0639 45.429 36.0247 45.5443 35.101V34.8701C45.5443 34.8701 49.5799 34.8701 49.6952 34.9855V36.7175C49.6952 39.6041 49.3493 41.4515 48.5422 42.8371C47.6198 44.4536 45.7749 45.4928 43.8148 45.4928C41.8547 45.4928 40.1251 44.569 38.9721 42.9525C38.165 41.9134 37.5885 40.6433 37.012 38.6804C35.6284 40.6433 34.0141 42.1443 32.3999 43.2989C29.8632 45.0309 27.096 45.8391 24.2134 45.8391C19.2554 45.8391 15.4505 44.2227 12.222 40.7587C9.10885 37.4103 7.60992 33.0227 7.60992 27.7113C7.60992 22.8618 9.22416 18.5897 12.222 15.0103C15.3352 11.6618 19.2554 9.92987 23.8675 9.92987C27.2113 9.92987 30.0938 11.0845 32.3999 13.2783C33.7835 14.5484 34.9365 16.3958 35.7437 18.0123C35.7437 18.0123 35.859 18.1278 35.859 18.2433C36.6661 14.6639 37.4732 10.6227 37.4732 10.6227H46.6974C46.6974 10.6227 41.8547 27.7113 40.2404 33.0227C40.817 34.6391 41.3935 35.4474 41.97 36.1402C42.4312 36.833 43.0077 37.0639 43.8148 37.0639ZM24.9053 41.3361C26.9807 41.3361 28.8255 40.2969 30.2092 38.2185C31.5928 36.2556 32.7458 32.7917 33.6682 27.134C32.7458 22.8618 31.4775 19.5134 29.9785 17.5505C28.5949 15.7031 26.9807 14.7794 24.9053 14.7794C22.5992 14.7794 20.8697 15.8185 19.486 18.0123C17.9871 20.3216 17.2953 23.6701 17.2953 27.8268C17.2953 32.3299 17.9871 35.7938 19.3707 38.1031C20.7544 40.2969 22.4839 41.3361 24.9053 41.3361Z" />
<path d="M83.8247 11.5464C83.1329 8.65979 81.4034 6.6969 77.4831 6.6969C73.7934 6.6969 71.718 8.65979 71.1415 11.5464L68.2589 24.4783H71.3721C72.0639 24.4783 72.7557 23.901 72.871 23.2082L73.4475 20.5526H81.634L82.2105 23.2082C82.3258 23.901 83.0176 24.4783 83.7094 24.4783H86.8226L83.8247 11.5464ZM74.2546 16.9732L75.2923 12.3546C75.4076 11.6618 75.9842 10.5072 77.5984 10.5072C79.0973 10.5072 79.6738 11.6618 79.9044 12.3546L80.9421 16.9732H74.2546Z" />
<path d="M94.3172 10.9691H101.12V24.4783H105.386V7.15875H92.5877C91.2041 7.15875 90.051 8.31339 90.051 9.69896V18.4742C90.051 19.6289 89.4745 20.4371 88.5521 20.5526L87.745 20.7835L88.5521 24.4783H89.3592C92.2418 24.4783 94.3172 22.2845 94.3172 18.5897V10.9691Z" />
<path d="M142.168 7.15873H140.669V5.08038H137.671C136.979 5.08038 136.403 5.6577 136.403 6.35049V7.04327H134.904C129.715 7.04327 126.371 10.6227 126.371 15.7031C126.371 20.7835 129.6 24.3629 134.904 24.3629H136.403V26.5567H139.4C140.092 26.5567 140.669 25.9794 140.669 25.2866V24.4783H142.168C147.356 24.4783 150.7 20.8989 150.7 15.8185C150.7 10.7381 147.472 7.15873 142.168 7.15873ZM134.904 20.668C132.021 20.668 130.637 18.8206 130.637 15.8185C130.637 12.8165 132.021 10.969 134.904 10.969H136.403V20.668H134.904ZM142.168 20.668H140.669V10.969H142.168C145.05 10.969 146.434 12.8165 146.434 15.8185C146.434 18.8206 145.05 20.668 142.168 20.668Z" />
<path d="M118.531 11.5464H112.42V7.15875H108.153V23.3237C108.153 24.0165 108.73 24.5938 109.422 24.5938H118.415C122.105 24.5938 124.872 21.8227 124.872 18.1278C124.988 14.3175 122.682 11.5464 118.531 11.5464ZM118.531 20.5526H112.42V15.3567H118.531C119.568 15.3567 120.721 16.2804 120.721 17.8969C120.721 19.6289 119.568 20.5526 118.531 20.5526Z" />
<path d="M166.496 11.5464C165.805 8.65979 164.075 6.6969 160.155 6.6969C156.465 6.6969 154.39 8.65979 153.813 11.5464L150.931 24.4783H154.044C154.736 24.4783 155.427 23.901 155.543 23.2082L156.119 20.5526H164.306L164.882 23.2082C164.997 23.901 165.689 24.4783 166.381 24.4783H169.494L166.496 11.5464ZM156.811 16.9732L157.849 12.3546C157.964 11.6618 158.54 10.5072 160.155 10.5072C161.654 10.5072 162.23 11.6618 162.461 12.3546L163.498 16.9732H156.811Z" />
<path d="M191.056 39.8351C191.748 39.1423 192.324 38.1031 192.324 36.7175C192.324 33.6 189.903 31.5217 186.905 31.5217H176.528C175.836 31.5217 175.259 32.099 175.259 32.7918V47.6866C175.259 48.3794 175.836 48.9567 176.528 48.9567H187.597C190.825 48.9567 193.016 46.6474 193.016 43.5299C192.901 41.9134 192.209 40.7588 191.056 39.8351ZM186.79 35.101C187.366 35.101 188.173 35.6784 188.173 36.833C188.173 37.8722 187.366 38.4495 186.79 38.565H179.295V35.101H186.79ZM187.135 45.2619H179.295V41.798H187.135C187.712 41.9134 188.519 42.3753 188.519 43.5299C188.519 44.6846 187.712 45.2619 187.135 45.2619Z" />
<path d="M163.037 31.0598C157.849 31.0598 154.159 34.7547 154.159 40.1815C154.159 45.4928 157.849 49.3031 163.037 49.3031H164.536C169.725 49.3031 173.414 45.6083 173.414 40.1815C173.414 34.8701 169.725 31.0598 164.536 31.0598H163.037ZM158.771 40.1815C158.771 37.0639 160.385 34.6392 163.383 34.6392H164.306C167.188 34.6392 168.918 37.0639 168.918 40.1815C168.918 43.299 167.303 45.7237 164.306 45.7237H163.383C160.385 45.7237 158.771 43.299 158.771 40.1815Z" />
<path d="M84.0553 31.5217L84.6318 34.1773C84.7471 34.8701 85.4389 35.4474 86.1307 35.4474H90.051V48.9567H94.3172V35.4474H98.1222C98.814 35.4474 99.5058 34.8701 99.6211 34.1773L100.198 31.5217H84.0553Z" />
<path d="M226.799 31.5217V38.4495H218.498V31.5217H214.231V48.8413H218.498V42.1443H226.799V48.8413H230.95V31.5217H226.799Z" />
<path d="M133.289 35.9093C132.597 33.0227 130.868 31.0598 126.948 31.0598C123.258 31.0598 121.183 33.0227 120.606 35.9093L117.724 48.8413H120.837C121.528 48.8413 122.22 48.2639 122.336 47.5712L122.912 44.9155H130.983L131.56 47.5712C131.675 48.2639 132.367 48.8413 133.059 48.8413H136.172L133.289 35.9093ZM123.719 41.3361L124.757 36.7175C124.872 36.0248 125.449 34.8701 127.063 34.8701C128.562 34.8701 129.138 36.0248 129.369 36.7175L130.407 41.3361H123.719Z" />
<path d="M209.504 35.9093C208.812 33.0227 207.083 31.0598 203.162 31.0598C199.473 31.0598 197.397 33.0227 196.821 35.9093L193.938 48.8413H197.051C197.743 48.8413 198.435 48.2639 198.55 47.5712L199.127 44.9155H207.313L207.89 47.5712C208.005 48.2639 208.697 48.8413 209.389 48.8413H212.502L209.504 35.9093ZM199.819 41.3361L200.856 36.7175C200.972 36.0248 201.548 34.8701 203.162 34.8701C204.777 34.8701 205.238 36.0248 205.469 36.7175L206.506 41.3361H199.819Z" />
<path d="M85.3236 48.8413H77.0219C72.0639 48.8413 68.4895 45.2619 68.4895 40.1815C68.4895 35.101 71.9486 31.5217 77.0219 31.5217H83.2482L82.6717 34.1773C82.5564 34.8701 81.8646 35.4474 81.0574 35.4474H76.9066C74.2546 35.4474 72.6404 37.4103 72.6404 40.1815C72.6404 42.9526 74.2546 44.9155 76.9066 44.9155H83.0176C83.7094 44.9155 84.4012 45.4928 84.5165 46.1856L85.3236 48.8413Z" />
<path d="M111.613 31.5217H102.619C101.927 31.5217 101.351 32.099 101.351 32.7918V48.9567H105.617V44.5691H111.728C115.879 44.5691 118.185 41.798 118.185 38.1031C118.069 34.2928 115.302 31.5217 111.613 31.5217ZM111.613 40.5279H105.502V35.332H111.613C112.65 35.332 113.803 36.2557 113.803 37.8722C113.803 39.6041 112.65 40.5279 111.613 40.5279Z" />
<path d="M266.925 45.2619H257.816V41.9134H267.732V38.565H257.816V35.2165H266.925C267.732 35.2165 268.308 34.8701 268.423 33.9464L269 31.5217H254.818C254.126 31.5217 253.549 32.099 253.549 32.7918V47.6866C253.549 48.3794 254.126 48.9567 254.818 48.9567H269L268.423 46.532C268.308 45.4928 267.616 45.2619 266.925 45.2619Z" />
<path d="M233.948 48.8413V31.5217H238.214V42.9526L245.594 32.5608C246.055 31.9835 246.862 31.5217 247.669 31.5217H250.782V48.9567H246.516V37.5258L239.137 47.9175C238.676 48.4949 237.868 48.9567 237.061 48.9567H233.948" />
<path d="M148.97 40.066L154.851 31.5217H151.046C150.239 31.5217 149.662 31.7526 149.086 32.5608L145.973 37.5258H145.281L142.168 32.5608C141.706 31.7526 141.015 31.5217 140.207 31.5217H136.172L142.168 40.2969L136.287 48.8413H140.207C141.015 48.8413 141.591 48.6103 142.168 47.8021L145.281 42.8371H145.857L148.97 47.8021C149.547 48.6103 150.123 48.8413 150.931 48.8413H154.966L148.97 40.066Z" />
</svg>
