<svg width="20" height="20" viewBox="0 0 20 20" fill="none" xmlns="http://www.w3.org/2000/svg">
<path d="M17.31 8.46325L16.17 5.04242C16.0046 4.54449 15.6865 4.11134 15.2609 3.80451C14.8353 3.49768 14.3238 3.33279 13.7992 3.33325H6.20084C5.67616 3.33279 5.16468 3.49768 4.73908 3.80451C4.31347 4.11134 3.99538 4.54449 3.83001 5.04242L2.69001 8.46325C2.38718 8.59032 2.12857 8.80389 1.94654 9.07722C1.76452 9.35056 1.66716 9.67152 1.66667 9.99992V14.1666C1.66667 14.7941 2.01917 15.3349 2.53251 15.6191C2.52167 15.6741 2.50001 15.7241 2.50001 15.7816V17.4999C2.50001 17.7209 2.5878 17.9329 2.74408 18.0892C2.90036 18.2455 3.11232 18.3333 3.33334 18.3333H4.16667C4.38769 18.3333 4.59965 18.2455 4.75593 18.0892C4.91221 17.9329 5.00001 17.7209 5.00001 17.4999V15.8333H15V17.4999C15 17.7209 15.0878 17.9329 15.2441 18.0892C15.4004 18.2455 15.6123 18.3333 15.8333 18.3333H16.6667C16.8877 18.3333 17.0996 18.2455 17.2559 18.0892C17.4122 17.9329 17.5 17.7209 17.5 17.4999V15.7816C17.5 15.7241 17.4783 15.6733 17.4675 15.6191C17.7287 15.4767 17.9468 15.2668 18.0991 15.0113C18.2514 14.7558 18.3323 14.464 18.3333 14.1666V9.99992C18.3333 9.30909 17.91 8.71575 17.31 8.46325ZM3.33334 14.1666V9.99992H16.6667L16.6683 14.1666H3.33334ZM6.20084 4.99992H13.7983C14.1575 4.99992 14.4758 5.22825 14.5892 5.56992L15.5108 8.33325H4.48917L5.41001 5.56992C5.4653 5.40391 5.57144 5.25952 5.71338 5.15722C5.85532 5.05491 6.02587 4.99988 6.20084 4.99992V4.99992Z" fill="#2D81FF"/>
<path d="M5.41667 13.3333C6.10703 13.3333 6.66667 12.7736 6.66667 12.0833C6.66667 11.3929 6.10703 10.8333 5.41667 10.8333C4.72632 10.8333 4.16667 11.3929 4.16667 12.0833C4.16667 12.7736 4.72632 13.3333 5.41667 13.3333Z" fill="#2D81FF"/>
<path d="M14.5833 13.3333C15.2737 13.3333 15.8333 12.7736 15.8333 12.0833C15.8333 11.3929 15.2737 10.8333 14.5833 10.8333C13.893 10.8333 13.3333 11.3929 13.3333 12.0833C13.3333 12.7736 13.893 13.3333 14.5833 13.3333Z" fill="#2D81FF"/>
</svg>
