<svg width="316" height="58" viewBox="0 0 316 58" fill="none" xmlns="http://www.w3.org/2000/svg">
<path d="M78.4654 30.9546C77.3961 31.9886 75.6853 31.9886 74.6161 30.9546L71.2439 27.6427C70.8162 27.2064 70.1747 27.0772 69.5989 27.3195C69.0232 27.5457 68.6613 28.095 68.6613 28.6928V52.3452C68.6613 53.8153 67.444 55.0109 65.9471 55.0109C64.4502 55.0109 63.2329 53.8315 63.2329 52.3452V39.0649C63.2164 38.1764 62.4926 37.4655 61.5879 37.4655C60.6996 37.4655 59.9594 38.1925 59.9594 39.0649V52.3452C59.9594 53.8153 58.7421 55.0109 57.2452 55.0109C55.7482 55.0109 54.531 53.8315 54.531 52.3452V28.6928C54.531 28.0789 54.1691 27.5457 53.5933 27.3195C53.0011 27.0933 52.3596 27.2226 51.9319 27.6588L48.5597 30.9546C48.0498 31.4555 47.3589 31.7301 46.6351 31.7301C45.9113 31.7301 45.2204 31.4555 44.7104 30.9546C44.2005 30.4538 43.9209 29.7914 43.9209 29.0644C43.9209 28.3535 44.2005 27.675 44.7104 27.1741C44.7104 27.1741 54.35 17.7229 54.7448 17.3513C56.7023 19.1446 59.1204 20.1947 61.6044 20.1947C64.0883 20.1947 66.4735 19.1608 68.4474 17.3674C68.8422 17.739 78.3996 27.0933 78.3996 27.0933C78.9917 27.675 79.2878 28.3212 79.2878 29.0644C79.2549 29.7914 78.9753 30.4538 78.4654 30.9546ZM61.5879 2.9563C65.5852 2.9563 68.8587 6.15519 68.8587 10.0972C68.8587 14.0393 65.5852 17.2544 61.5879 17.2544C57.5742 17.2544 54.3171 14.0393 54.3171 10.0972C54.3007 6.15519 57.5742 2.9563 61.5879 2.9563ZM37.5713 30.9546C36.5185 31.9886 34.7912 31.9886 33.7385 30.9546L30.3498 27.6427C29.9221 27.2064 29.2641 27.0772 28.7048 27.3195C28.1291 27.5457 27.7672 28.095 27.7672 28.6928V52.3452C27.7672 53.8153 26.5499 55.0109 25.053 55.0109C23.5561 55.0109 22.3388 53.8315 22.3388 52.3452V39.0649C22.3223 38.1764 21.5821 37.4655 20.6938 37.4655C19.7891 37.4655 19.0653 38.1925 19.0653 39.0649V52.3452C19.0653 53.8153 17.848 55.0109 16.3511 55.0109C14.8541 55.0109 13.6369 53.8315 13.6369 52.3452V28.6928C13.6369 28.0789 13.275 27.5457 12.6992 27.3195C12.1235 27.0933 11.4655 27.2226 11.0378 27.6588L7.66559 30.9546C7.15565 31.4555 6.46476 31.7301 5.74097 31.7301C5.01718 31.7301 4.32629 31.4555 3.81634 30.9546C3.3064 30.4538 3.02676 29.7914 3.02676 29.0644C3.02676 28.3535 3.3064 27.675 3.81634 27.1741C3.81634 27.1741 13.4559 17.7229 13.8342 17.3513C15.8082 19.1446 18.2099 20.1947 20.6938 20.1947C23.1613 20.1947 25.5629 19.1608 27.5369 17.3674C27.9152 17.739 37.489 27.0933 37.489 27.0933C38.0812 27.675 38.3773 28.3212 38.3773 29.0644C38.3608 29.7914 38.0812 30.4538 37.5713 30.9546ZM20.6938 2.9563C24.7075 2.9563 27.9646 6.15519 27.9646 10.0972C27.9646 14.0393 24.6911 17.2544 20.6938 17.2544C16.6801 17.2544 13.423 14.0393 13.423 10.0972C13.423 6.15519 16.6801 2.9563 20.6938 2.9563ZM70.3885 15.0894C71.3426 13.5062 71.869 11.7936 71.869 10.1134C71.869 4.53959 67.2466 0.0159121 61.5879 0.0159121C55.9127 0.0159121 51.3068 4.55574 51.3068 10.1134C51.3068 11.7936 51.8332 13.49 52.7873 15.0733C52.4583 15.3803 42.5884 25.0738 42.5884 25.0738C41.8975 25.7524 41.4369 26.5925 41.1573 27.4972C40.8941 26.5925 40.4171 25.7686 39.7262 25.0738C39.7262 25.0738 29.8399 15.3964 29.5273 15.0894C30.465 13.5062 31.0078 11.7936 31.0078 10.1134C31.0078 4.53959 26.3854 0.0159121 20.7267 0.0159121C15.0186 -0.000243858 10.4127 4.53959 10.4127 10.0972C10.4127 11.7775 10.9391 13.4738 11.8767 15.0571C11.5477 15.3641 1.67788 25.0577 1.67788 25.0577C0.592191 26.1401 0 27.5619 0 29.0644C0 30.583 0.592191 31.9886 1.67788 33.0549C2.76356 34.1212 4.21114 34.7028 5.74097 34.7028C7.27079 34.7028 8.71837 34.105 9.80406 33.0549C9.80406 33.0549 10.2153 32.651 10.5936 32.2794C10.5936 33.7819 10.5936 52.3452 10.5936 52.3452C10.5936 55.4633 13.1763 57.9836 16.3346 57.9836C18.0125 57.9836 19.5917 56.9819 20.6938 55.4148C21.7959 56.9819 23.3587 57.9836 25.053 57.9836C28.2278 57.9836 30.7939 55.4471 30.7939 52.3452C30.7939 52.3452 30.7939 33.7819 30.7939 32.2794C31.1723 32.6672 31.5835 33.0549 31.5835 33.0549C33.8207 35.2521 37.4726 35.2521 39.7097 33.0549C40.4006 32.3764 40.8777 31.5524 41.1409 30.6477C41.404 31.5524 41.8811 32.3764 42.572 33.0549C43.6577 34.1212 45.1052 34.7028 46.6351 34.7028C48.1649 34.7028 49.6125 34.105 50.6982 33.0549C50.6982 33.0549 51.1259 32.651 51.5042 32.2794C51.5042 33.7819 51.5042 52.3452 51.5042 52.3452C51.5042 55.4633 54.0704 57.9836 57.2452 57.9836C58.923 57.9836 60.5022 56.9819 61.6044 55.4148C62.7065 56.9819 64.2692 57.9836 65.9471 57.9836C69.1219 57.9836 71.688 55.4471 71.688 52.3452C71.688 52.3452 71.688 33.7819 71.688 32.2794C72.0664 32.6672 72.4776 33.0549 72.4776 33.0549C74.7148 35.2521 78.3667 35.2521 80.6038 33.0549C81.6895 31.9886 82.2981 30.583 82.2981 29.0644C82.2981 27.5619 81.706 26.1401 80.6038 25.0738C80.5874 25.0738 70.7011 15.4126 70.3885 15.0894Z" fill="#D86C43"/>
<path d="M96.4779 48.2579C97.0701 48.2579 97.6623 48.4195 98.1558 48.7264L98.6493 48.064C98.0077 47.6763 97.2346 47.4824 96.4779 47.4824C94.4875 47.4824 92.9576 48.8557 92.9576 50.8429C92.9576 52.8624 94.471 54.2195 96.4779 54.2195C97.1688 54.2195 98.0406 54.0094 98.6493 53.6702L98.1722 52.9593C97.6787 53.2501 97.0865 53.4278 96.4943 53.4278C94.9151 53.4278 93.9282 52.3777 93.9282 50.8429C93.9282 49.3565 94.9152 48.2579 96.4779 48.2579Z" fill="#D86C43"/>
<path d="M105.081 48.3549H107.335V54.1065H108.256V48.3549H110.51V47.6118H105.081V48.3549Z" fill="#D86C43"/>
<path d="M119.047 50.843H118.356V48.3549H119.129C120.067 48.3549 121.087 48.4196 121.087 49.5828C121.087 50.746 119.968 50.843 119.047 50.843ZM119.425 47.6118H117.451V54.1065H118.356V51.5861C119.869 51.5861 122.024 51.6346 122.024 49.5828C122.024 48.0157 120.774 47.6118 119.425 47.6118Z" fill="#D86C43"/>
<path d="M129.542 51.7961L130.776 49.1788L132.059 51.7961H129.542ZM130.71 47.4824L127.469 54.1064H128.423L129.18 52.5231H132.404L133.177 54.1064H134.148L130.924 47.4824H130.71Z" fill="#D86C43"/>
<path d="M146.6 47.6118H145.564L143.623 50.1321L141.731 47.6118H140.662L143.08 50.7622L140.432 54.1065H141.468L143.59 51.3599L145.663 54.1065H146.748L144.133 50.7299L146.6 47.6118Z" fill="#D86C43"/>
<path d="M156.404 53.4117C154.957 53.4117 153.904 52.2323 153.904 50.8429C153.904 49.4535 154.957 48.2902 156.404 48.2902C157.852 48.2902 158.905 49.4535 158.905 50.8429C158.905 52.2484 157.868 53.4117 156.404 53.4117ZM156.404 47.4824C154.513 47.4824 152.95 48.9849 152.95 50.8429C152.95 52.717 154.496 54.2195 156.404 54.2195C158.313 54.2195 159.875 52.7331 159.875 50.8429C159.875 48.9688 158.313 47.4824 156.404 47.4824Z" fill="#D86C43"/>
<path d="M168.939 53.3794H167.952V51.053H168.939C169.811 51.053 170.864 51.1338 170.864 52.2162C170.88 53.2825 169.811 53.3794 168.939 53.3794ZM167.969 48.3388H168.972C169.663 48.3388 170.666 48.3388 170.666 49.2597C170.666 50.3098 169.482 50.3098 168.709 50.3098H167.969V48.3388ZM170.502 50.6329C171.16 50.4391 171.555 49.9059 171.555 49.2274C171.555 47.9026 170.37 47.6118 169.235 47.6118H167.031V54.1065H169.169C170.518 54.1065 171.752 53.7349 171.752 52.1839C171.785 51.4084 171.275 50.8106 170.502 50.6329Z" fill="#D86C43"/>
<path d="M180.322 51.7961L181.573 49.1788L182.839 51.7961H180.322ZM181.49 47.4824L178.25 54.1064H179.204L179.96 52.5231H183.185L183.958 54.1064H184.945L181.704 47.4824H181.49Z" fill="#D86C43"/>
<path d="M195.259 48.3549V50.843H194.65C193.729 50.843 192.577 50.6814 192.577 49.5343C192.577 48.4357 193.63 48.3711 194.502 48.3711H195.259V48.3549ZM191.673 49.4697C191.673 50.4229 192.248 51.1499 193.186 51.3923L191.163 54.1065H192.265L194.124 51.5861H195.259V54.1065H196.163V47.6118H194.173C192.906 47.6118 191.673 48.0318 191.673 49.4697Z" fill="#D86C43"/>
<path d="M215.146 50.5844C215.607 50.4874 216.018 50.1158 216.314 49.6473L216.726 49.0011C216.972 48.6295 217.236 48.2256 217.927 48.2256C218.009 48.2256 218.075 48.2418 218.124 48.2418V47.5147C218.025 47.4986 217.894 47.4824 217.762 47.4824C217.219 47.4824 216.726 47.5794 216.166 48.371L215.508 49.2757C215.36 49.5019 214.933 50.2774 214.291 50.2774H213.913V47.6117H213.008V54.1064H213.913V51.0044H214.275C214.85 51.0044 215.114 51.2791 215.344 51.586L217.351 54.1064H218.519L216.446 51.5699C216.035 51.1014 215.591 50.6328 215.146 50.5844Z" fill="#D86C43"/>
<path d="M228.454 53.4117C227.007 53.4117 225.97 52.2323 225.97 50.8429C225.97 49.4535 227.023 48.2902 228.454 48.2902C229.918 48.2902 230.955 49.4535 230.955 50.8429C230.971 52.2484 229.918 53.4117 228.454 53.4117ZM228.454 47.4824C226.563 47.4824 225 48.9849 225 50.8429C225 52.717 226.563 54.2195 228.454 54.2195C230.379 54.2195 231.925 52.7331 231.925 50.8429C231.942 48.9688 230.363 47.4824 228.454 47.4824Z" fill="#D86C43"/>
<path d="M245.414 47.4824L243.095 52.4585L240.742 47.4824H240.528L239.147 54.1064H240.002L240.89 49.8089L242.996 54.2356H243.193L245.25 49.8089L246.105 54.1064H247.01L245.644 47.4824H245.414Z" fill="#D86C43"/>
<path d="M254.659 54.1065H255.564V48.3549H259.363V54.1065H260.268V47.6118H254.659V54.1065Z" fill="#D86C43"/>
<path d="M269.826 51.7961L271.076 49.1788L272.359 51.7961H269.826ZM271.01 47.4824L267.786 54.1064H268.74L269.497 52.5231H272.721L273.477 54.1064H274.448L271.224 47.4824H271.01Z" fill="#D86C43"/>
<path d="M286.67 50.3744H282.854V47.6118H281.949V54.1065H282.854V51.1176H286.67V54.1065H287.558V47.6118H286.67V50.3744Z" fill="#D86C43"/>
<path d="M296.606 52.3777V47.6117H295.767V54.2356H295.997L300.735 49.3404V54.1064H301.59V47.4824H301.36L296.606 52.3777Z" fill="#D86C43"/>
<path d="M313.204 48.3549V50.843H312.595C311.674 50.843 310.522 50.6814 310.522 49.5343C310.522 48.4357 311.559 48.3711 312.43 48.3711H313.204V48.3549ZM309.617 49.4697C309.617 50.4229 310.193 51.1499 311.131 51.3923L309.108 54.1065H310.21L312.085 51.5861H313.22V54.1065H314.125V47.6118H312.134C310.851 47.6118 309.617 48.0318 309.617 49.4697Z" fill="#D86C43"/>
<path d="M135.53 30.3571C128.637 30.3571 123.028 24.8479 123.028 18.0786C123.028 11.3092 128.637 5.80001 135.53 5.80001C142.422 5.80001 148.031 11.3092 148.031 18.0786C148.031 24.8479 142.422 30.3571 135.53 30.3571ZM135.53 1.68024C126.334 1.68024 118.833 9.03121 118.833 18.0786C118.833 27.1259 126.318 34.4769 135.53 34.4769C144.742 34.4769 152.226 27.1259 152.226 18.0786C152.21 9.04737 144.725 1.68024 135.53 1.68024Z" fill="#D86C43"/>
<path d="M117.336 29.1454C116.728 28.1761 115.428 27.8852 114.441 28.483C112.451 29.7109 110.164 30.3571 107.828 30.3571C100.936 30.3571 95.3264 24.8479 95.3264 18.0786C95.3264 11.3092 100.936 5.80001 107.828 5.80001C110.181 5.80001 112.451 6.44625 114.441 7.65795C115.412 8.25572 116.711 7.96492 117.336 7.01171C117.961 6.04235 117.665 4.78219 116.678 4.16826C114.03 2.5365 110.97 1.68024 107.828 1.68024C98.6164 1.68024 91.1317 9.03121 91.1317 18.0786C91.1317 27.1259 98.6164 34.4769 107.828 34.4769C110.954 34.4769 114.013 33.6206 116.678 31.9889C117.665 31.3749 117.961 30.1148 117.336 29.1454Z" fill="#D86C43"/>
<path d="M253.178 5.80001C255.514 5.80001 257.817 6.44625 259.791 7.65795C260.778 8.25572 262.078 7.96492 262.686 7.01171C263.295 6.04235 262.999 4.78219 262.028 4.16826C259.38 2.5365 256.32 1.68024 253.178 1.68024C243.966 1.68024 236.482 9.03121 236.482 18.0786C236.482 27.1259 243.966 34.4769 253.178 34.4769C256.304 34.4769 259.363 33.6206 262.028 31.9889C263.015 31.3749 263.311 30.1148 262.686 29.1454C262.078 28.1761 260.778 27.8852 259.791 28.483C257.817 29.7109 255.514 30.3571 253.178 30.3571C246.286 30.3571 240.677 24.8479 240.677 18.0786C240.677 11.3092 246.286 5.80001 253.178 5.80001Z" fill="#D86C43"/>
<path d="M171.571 4.03904C171.571 2.89196 170.633 1.97107 169.482 1.97107H158.576C157.424 1.97107 156.487 2.89196 156.487 4.03904V32.102C156.487 33.2491 157.424 34.17 158.576 34.17C159.744 34.17 160.681 33.2491 160.681 32.102C160.681 32.102 160.681 9.64516 160.681 6.107C163.412 6.107 169.482 6.107 169.482 6.107C170.633 6.09085 171.571 5.16996 171.571 4.03904Z" fill="#D86C43"/>
<path d="M186.392 3.06968C186.03 2.39113 185.307 1.97107 184.533 1.97107C183.76 1.97107 183.037 2.39113 182.675 3.06968L167.64 31.2457C167.097 32.2636 167.492 33.4914 168.528 34.0246C169.548 34.5416 170.814 34.17 171.357 33.1521C171.357 33.1521 181.671 13.8134 184.517 8.44962C187.379 13.7973 197.693 33.1521 197.693 33.1521C198.236 34.1538 199.503 34.5416 200.523 34.0246C201.542 33.4914 201.937 32.2474 201.411 31.2457L186.392 3.06968Z" fill="#D86C43"/>
<path d="M214.883 18.5148C217.088 14.3789 219.177 10.453 220.246 8.48193C221.299 10.4691 223.388 14.3789 225.592 18.5148H214.883ZM222.088 3.06968C221.726 2.39113 221.019 1.97107 220.229 1.97107C219.456 1.97107 218.733 2.39113 218.371 3.06968L203.336 31.2457C202.793 32.2636 203.204 33.4914 204.224 34.0246C205.26 34.5416 206.527 34.17 207.053 33.1521C207.053 33.1521 209.685 28.1922 212.663 22.6184H227.763C230.741 28.2084 233.373 33.1521 233.373 33.1521C233.916 34.1538 235.182 34.5416 236.202 34.0246C237.222 33.4914 237.617 32.2474 237.09 31.2457L222.088 3.06968Z" fill="#D86C43"/>
<path d="M294.237 2.10032C293.414 1.80951 292.477 2.05185 291.918 2.69809C291.918 2.69809 276.636 20.3566 271.322 26.4959C271.322 19.3226 271.322 4.03904 271.322 4.03904C271.322 2.89196 270.385 1.97107 269.217 1.97107C268.049 1.97107 267.111 2.89196 267.111 4.03904V32.102C267.111 32.9583 267.654 33.7337 268.493 34.0407C269.316 34.3315 270.253 34.1053 270.812 33.4429C270.812 33.4429 286.094 15.7844 291.408 9.64516C291.408 16.8184 291.408 32.102 291.408 32.102C291.408 33.2491 292.345 34.17 293.497 34.17C294.648 34.17 295.586 33.2491 295.586 32.102V4.03904C295.619 3.16661 295.059 2.39113 294.237 2.10032Z" fill="#D86C43"/>
<path d="M313.911 6.09085C315.079 6.09085 316 5.16996 316 4.03904C316 2.89196 315.062 1.97107 313.911 1.97107H302.314C301.146 1.97107 300.208 2.89196 300.208 4.03904V32.102C300.208 33.2491 301.146 34.17 302.314 34.17H313.862C315.029 34.17 315.967 33.2491 315.967 32.102C315.967 30.9549 315.029 30.034 313.862 30.034C313.862 30.034 307.216 30.034 304.403 30.034C304.403 28.5961 304.403 24.4279 304.403 19.9204H313.187C314.339 19.9204 315.276 18.9995 315.276 17.8686C315.276 16.7376 314.339 15.8168 313.187 15.8168H304.403C304.403 11.4546 304.403 7.48026 304.403 6.09085C307.216 6.09085 313.911 6.09085 313.911 6.09085Z" fill="#D86C43"/>
</svg>
