<svg width="20" height="20" viewBox="0 0 20 20" fill="none" xmlns="http://www.w3.org/2000/svg">
<path fill-rule="evenodd" clip-rule="evenodd" d="M3.33331 3.33329C3.1123 3.33329 2.90034 3.42109 2.74406 3.57737C2.58778 3.73365 2.49998 3.94561 2.49998 4.16663V9.16663C2.49998 11.1558 3.29016 13.0634 4.69668 14.4699C5.39312 15.1664 6.21991 15.7188 7.12985 16.0957C8.03979 16.4726 9.01506 16.6666 9.99998 16.6666C11.9891 16.6666 13.8968 15.8765 15.3033 14.4699C16.7098 13.0634 17.5 11.1558 17.5 9.16663V4.16663C17.5 3.94561 17.4122 3.73365 17.2559 3.57737C17.0996 3.42109 16.8877 3.33329 16.6666 3.33329H3.33331ZM3.33331 1.66663H16.6666C17.3297 1.66663 17.9656 1.93002 18.4344 2.39886C18.9033 2.8677 19.1666 3.50358 19.1666 4.16663V9.16663C19.1666 11.5978 18.2009 13.9294 16.4818 15.6484C14.7627 17.3675 12.4311 18.3333 9.99998 18.3333C8.7962 18.3333 7.6042 18.0962 6.49205 17.6355C5.3799 17.1749 4.36937 16.4996 3.51817 15.6484C1.79908 13.9294 0.833313 11.5978 0.833313 9.16663V4.16663C0.833313 3.50358 1.0967 2.8677 1.56555 2.39886C2.03439 1.93002 2.67027 1.66663 3.33331 1.66663Z" fill="#2D81FF"/>
<path fill-rule="evenodd" clip-rule="evenodd" d="M6.07739 7.74408C6.40283 7.41864 6.93047 7.41864 7.2559 7.74408L9.99998 10.4882L12.7441 7.74408C13.0695 7.41864 13.5971 7.41864 13.9226 7.74408C14.248 8.06951 14.248 8.59715 13.9226 8.92259L10.5892 12.2559C10.2638 12.5814 9.73616 12.5814 9.41072 12.2559L6.07739 8.92259C5.75195 8.59715 5.75195 8.06951 6.07739 7.74408Z" fill="#2D81FF"/>
</svg>
