<svg width="216" height="58" viewBox="0 0 216 58" fill="none" xmlns="http://www.w3.org/2000/svg">
<path d="M55.1771 26.9821H67.0255V37.578L73.5844 26.9821H86.5759L76.5052 40.9408L86.8732 56.4159H73.2458L67.0243 45.2292V56.4159H55.1758V26.9821H55.1771Z" fill="#006FBA"/>
<path d="M52.1883 55.4891C50.3256 56.4521 47.787 57.2955 44.2327 57.2955C34.5843 57.2955 27.7281 51.1161 27.7281 41.6984C27.7281 31.0191 36.5307 26.1 44.0628 26.1C46.4752 26.1 49.8171 26.6884 52.1883 28.3269V38.6304C50.368 36.4022 47.702 35.5177 45.6306 35.5177C41.2281 35.5177 39.1118 38.4189 39.1118 41.992C39.1118 45.733 41.8627 47.8766 45.5869 47.8766C48.2092 47.8766 50.4955 46.7009 52.1883 45.1892V55.4891Z" fill="#006FBA"/>
<path d="M11.8485 49.1598H13.2889C14.3883 49.1598 16.251 48.9895 16.251 46.9293C16.251 44.9561 14.4307 44.7446 13.2889 44.7446H11.8485V49.1598ZM0 26.8008H16.7157C25.2222 26.8008 26.1117 32.0172 26.1117 34.2853C26.1117 37.607 23.402 39.7095 20.9471 40.4248V40.5094C24.7563 41.1377 27.5072 44.0401 27.5072 48.0349C27.5072 51.0183 25.7307 56.231 17.5203 56.231H0V26.8008ZM11.8485 37.9936H12.9503C15.0229 37.9936 15.5738 36.94 15.5738 35.9274C15.5738 34.9172 15.0229 33.8636 12.9503 33.8636H11.8485V37.9936Z" fill="#006FBA"/>
<path d="M156.119 30.7279L152.746 30.8609L152.43 30.0513L149.178 29.8277L149.158 29.2405L145.667 29.1934L146.245 30.4114L147.802 30.5854L147.608 30.1866L149.019 31.1098L151.361 31.6185L152.916 31.6729L156.843 31.1654L156.119 30.7279Z" fill="#52B9E9"/>
<path d="M147.505 27.8738L145.908 27.666C145.908 27.666 145.95 27.1271 145.33 26.8274C144.707 26.529 144.845 26.8045 144.845 26.8045L144.238 26.3719L143.122 26.1858L143.028 25.3726L141.581 25.3061L141.616 24.9038L140.479 24.7672L140.002 24.3503L140.151 23.8863L139.868 23.4683L138.513 22.8447L137.372 22.4061L136.622 21.57L135.734 20.816L134.581 19.7236L131.711 18.7497L128.993 16.8043L127.891 16.35L126.722 15.7917L124.246 14.4976L120.6 12.522L112.535 8.72538L110.235 7.73333C108.93 7.18233 108.72 6.89234 108.69 6.728C107.509 6.46096 107.117 6.26038 106.498 5.65983C105.868 5.68521 104.478 4.90825 104.095 4.54333C104.095 4.52521 101.721 3.85338 101.569 3.71925C101.562 3.5815 95.4016 1.46933 94.6456 1.29413C94.1092 1.25183 92.6191 0.982376 92.4128 0.889335C92.1653 0.891751 91.2151 0.605377 90.8341 0.565502C89.5514 0.42171 88.3294 0.227168 87.0067 0.210251C86.0639 0.196959 85.5263 0.207835 84.6975 0.012085C84.4038 0.18971 82.4768 -0.144999 81.7851 0.348001C81.0121 0.377001 79.2489 0.757626 78.7611 0.987209C77.7054 1.02588 75.9094 2.14963 75.3051 2.43721C75.0018 2.57858 74.6814 2.72721 74.3622 2.87825C76.2917 3.53558 78.476 4.31617 78.4796 4.39833C78.6325 4.53246 81.0061 5.20308 81.0085 5.22121C81.3895 5.58613 82.7838 6.36308 83.4088 6.34133C84.0276 6.94308 84.4196 7.13883 85.6003 7.40708C85.6331 7.57383 85.843 7.86263 87.1475 8.41484L89.4458 9.40325L97.5094 13.2035L101.158 15.1791L103.631 16.472L104.801 17.0278L105.906 17.4846L106.808 18.1298L108.586 18.8041L112.594 20.068L117.436 21.8986L119.24 22.5004L121.061 23.0441L121.915 22.8919L122.858 23.2048L123.905 24.1135L124.973 23.7728L125.695 23.8936L126.265 24.621L126.644 25.056L127.554 25.317L128.457 25.4306L129.528 25.2409L130.79 25.34L131.23 26.071L132.99 26.3682L134.251 26.4601L135.513 26.5568L136.483 26.993L137.367 27.927L138.633 28.1747L141.917 28.6387L144.88 28.2943L146.813 28.385L147.505 27.8738Z" fill="#52B9E9"/>
<path d="M120.911 32.5283L124.403 32.5767L124.427 33.1627L127.677 33.385L127.99 34.1922L131.368 34.0593L132.089 34.5003L128.167 35.0078L126.611 34.9534L124.267 34.4459L122.854 33.5228L123.046 33.9215L121.493 33.7463L120.911 32.5283Z" fill="#006FBA"/>
<path d="M121.283 31.146C121.283 31.146 121.326 30.6107 120.703 30.3098C120.084 30.0089 120.221 30.2856 120.221 30.2856L119.614 29.8555L118.498 29.6682L118.406 28.8526L116.957 28.7837L116.992 28.3813L115.854 28.2472L115.377 27.8327L115.531 27.3687L115.242 26.9494L113.889 26.3247L112.748 25.8873L111.996 25.0536L111.107 24.2959L109.959 23.2072L107.087 22.2321L104.367 20.2867L103.263 19.8324L102.094 19.2717L99.6209 17.9776L95.9732 16.0044L87.9083 12.2054L85.6076 11.2133C84.3031 10.6623 84.0932 10.3723 84.0628 10.208C82.8809 9.93973 82.4877 9.74156 81.8713 9.13981C81.2439 9.16519 79.852 8.38823 79.471 8.02211C79.471 8.00519 77.0974 7.33094 76.9421 7.19923C76.9373 7.06269 70.7776 4.94932 70.0204 4.77169C69.4828 4.73061 67.9939 4.45994 67.7876 4.36811C67.5376 4.36932 66.5923 4.08294 66.2076 4.04307C64.925 3.90048 63.6994 3.70232 62.3803 3.69023C61.435 3.67573 60.8999 3.68661 60.0711 3.49207C59.7774 3.66969 57.8504 3.33257 57.1587 3.82557C56.3881 3.85819 54.6225 4.2364 54.1347 4.46598C53.0814 4.50707 51.283 5.62961 50.6787 5.91598C50.1484 6.16611 49.5429 6.41986 49.0478 6.71832C48.8136 6.89957 45.4377 8.51632 45.2132 8.71932C45.2666 8.83411 41.9125 10.759 41.597 11.049C41.455 11.1952 40.5631 11.5504 40.3386 11.7559C40.0995 11.9673 39.2101 12.7491 38.9091 12.8917C38.7732 13.1636 37.9201 13.4632 37.783 13.7351C37.5791 14.0106 36.561 14.4831 36.3972 14.6704C36.3742 14.6921 35.8087 15.1416 35.3572 15.4981L34.7893 16.2231C34.5709 16.3052 33.6705 16.8091 33.4375 16.9795C33.4594 17.4954 33.4994 18.3171 32.6548 18.1612C32.633 18.1443 31.6877 18.7449 31.6646 18.7279C31.786 18.7207 31.144 19.6366 30.6113 20.2831C30.2982 20.6564 28.8457 21.1651 28.5654 21.5506C27.9865 22.3348 27.239 23.055 26.6602 23.8199V23.8791L26.7294 23.8779C26.7354 23.9806 27.29 23.9624 27.3701 24.1763C27.4817 24.476 27.1395 24.7454 27.0546 25.0161C27.0789 25.0161 27.1019 25.0161 27.1238 25.0137L27.125 25.0753C27.5703 25.056 28.012 24.6065 28.3712 24.418L29.274 24.0772C29.808 23.7727 30.3419 23.4646 30.8746 23.1577C34.867 21.0576 38.8581 18.9527 42.8529 16.8538C44.7666 15.8606 46.2847 14.9277 48.3949 13.7979C48.8985 13.5297 50.8195 12.2791 52.2684 12.1872C54.1031 12.0664 56.3093 12.5207 56.899 12.7648C57.4621 12.9569 58.8527 13.6409 59.5492 13.8016C59.7665 13.8801 60.1645 14.1604 60.2603 14.1556C60.3283 14.2499 61.6474 14.4504 62.3403 14.6933C62.5793 14.8347 62.8159 14.9712 63.0538 15.109C64.1993 15.4316 67.051 16.0841 68.0837 16.3922C68.9586 16.6496 69.4792 17.1257 69.916 17.2187C70.5167 17.6223 70.6356 17.4181 71.3759 17.7601C72.4801 17.8724 73.1597 18.2555 73.1961 18.2881C73.5395 18.4259 73.7676 18.5648 74.1123 18.7014C74.3987 18.7388 74.9484 19.1448 75.1631 19.2524C75.4204 19.2995 77.2164 19.8336 77.3984 19.9206C77.6945 19.894 78.9686 20.4281 79.1276 20.561C79.4892 20.7241 79.8945 20.8123 80.3022 20.8957L83.967 22.2829L87.9763 23.5492L92.8108 25.3786L94.6189 25.9767L96.4391 26.5217L97.2922 26.3682L98.2387 26.6812L99.2823 27.5911L100.348 27.2503L101.071 27.3736L101.641 28.0986L102.018 28.5336L102.928 28.7982L103.833 28.913L104.903 28.7184L106.165 28.8187L106.609 29.551L108.366 29.8458L109.628 29.9401L110.889 30.0343L111.86 30.4717L112.742 31.4046L114.01 31.6535L117.29 32.1175L120.255 31.7707L122.187 31.8613L122.877 31.3562L121.283 31.146Z" fill="#006FBA"/>
<path d="M96.751 55.2184C96.1807 55.5072 95.4283 55.7561 94.4029 55.7561C92.7368 55.7561 91.7296 55.2039 90.9311 54.4741C89.8366 53.4554 89.4094 52.3136 89.4094 50.9651C89.4094 49.2976 90.1205 48.0989 90.9311 47.3715C91.8837 46.5027 93.0657 46.1583 94.4187 46.1583C95.0861 46.1583 95.8834 46.2707 96.751 46.7238V48.8167C96.4629 48.4951 96.1102 48.2372 95.7158 48.0596C95.3214 47.8821 94.894 47.7889 94.4612 47.7859C92.5548 47.7859 91.3158 49.3 91.3158 50.9941C91.3158 53.0301 92.9382 54.1321 94.5316 54.1321C95.4138 54.1321 96.1964 53.7624 96.751 53.1256V55.2184Z" fill="#006FBA"/>
<path d="M102.155 55.5459H100.305V47.9044H98.1708V46.3638H104.289V47.9044H102.157V55.5459H102.155Z" fill="#006FBA"/>
<path d="M106.168 46.365V55.5459H108.019V52.1469H109.214C110.309 52.1469 111.088 51.8424 111.616 51.3349C112.342 50.6304 112.4 49.6408 112.4 49.2831C112.4 48.6234 112.201 47.7268 111.432 47.0634C110.736 46.4749 109.994 46.3638 108.928 46.3638H106.166L106.168 46.365ZM108.019 47.9068H108.657C109.093 47.9068 109.575 47.9358 109.959 48.1968C110.226 48.3889 110.48 48.7345 110.48 49.242C110.48 49.6432 110.312 50.054 109.973 50.3174C109.575 50.605 109.124 50.605 108.767 50.605H108.019V47.9068Z" fill="#006FBA"/>
<path d="M120.329 55.5447H122.323L118.326 46.1704H116.93L112.818 55.5447H114.825L115.663 53.6174H119.49L120.329 55.5447ZM116.249 52.1565L117.612 48.8565L118.947 52.1577L116.249 52.1565Z" fill="#006FBA"/>
<path d="M126.53 50.6993L123.694 46.3638H125.916L127.58 49.2118L129.333 46.3638H131.551L128.63 50.6993L131.876 55.5459H129.658L127.578 52.1867L125.387 55.5459H123.169L126.53 50.6993Z" fill="#006FBA"/>
<path d="M138.568 46.1583C135.582 46.1583 133.507 48.1702 133.507 50.9651C133.507 53.7599 135.582 55.7561 138.568 55.7561C141.56 55.7561 143.634 53.7599 143.634 50.9651C143.634 48.1702 141.559 46.1583 138.568 46.1583ZM138.568 54.1297C136.718 54.1297 135.41 52.8211 135.41 50.9651C135.41 49.1055 136.721 47.7847 138.568 47.7847C140.421 47.7847 141.73 49.1055 141.73 50.9651C141.732 52.8235 140.421 54.1297 138.568 54.1297Z" fill="#006FBA"/>
<path d="M147.899 54.0862H148.7C149.04 54.0862 149.552 54.0742 149.965 53.8385C150.421 53.5763 150.547 53.1353 150.547 52.7788C150.552 52.5544 150.488 52.3338 150.363 52.1469C150.239 51.96 150.059 51.8157 149.849 51.7336C149.454 51.5524 148.981 51.5524 148.584 51.5524H147.899V54.0862ZM146.055 46.365H148.399C148.928 46.365 149.953 46.365 150.717 46.9438C151.27 47.3546 151.599 48.0687 151.599 48.8433C151.599 50.0238 150.789 50.5096 150.531 50.6461C151.158 50.7404 151.53 51.0014 151.77 51.2225C152.341 51.7445 152.452 52.4622 152.452 52.9432C152.452 53.4797 152.298 54.2361 151.644 54.8004C150.929 55.4082 150.064 55.5435 149.24 55.5435H146.055V46.365ZM147.899 47.8247V50.1773H148.428C148.712 50.1773 149.864 50.1483 149.864 48.9774C149.864 48.1376 149.197 47.8247 148.441 47.8247H147.899Z" fill="#006FBA"/>
<path d="M159.48 46.1583C156.494 46.1583 154.416 48.1702 154.416 50.9651C154.416 53.7599 156.496 55.7561 159.48 55.7561C162.468 55.7561 164.546 53.7599 164.546 50.9651C164.546 48.1702 162.468 46.1583 159.48 46.1583ZM159.48 54.1297C157.631 54.1297 156.321 52.8211 156.321 50.9651C156.321 49.1055 157.634 47.7847 159.48 47.7847C161.326 47.7847 162.636 49.1055 162.636 50.9651C162.636 52.8235 161.328 54.1297 159.481 54.1297H159.48Z" fill="#006FBA"/>
<path d="M169.862 43.4275C170.158 44.196 170.954 44.2214 171.136 44.2214C171.322 44.2214 172.117 44.1936 172.415 43.4275L173.689 43.9193C173.322 44.8521 172.442 45.4539 171.136 45.4539C169.833 45.4539 168.957 44.8521 168.586 43.9193L169.862 43.4275ZM168.811 46.3637V52.5311L174.049 46.1547H175.325V55.5422H173.478V49.3507L168.242 55.7211H166.963V46.3649H168.811V46.3637Z" fill="#006FBA"/>
<path d="M183.146 46.3638V50.3525C183.146 51.62 182.988 52.3088 182.802 52.7655C182.516 53.4519 181.979 54.0319 181.294 54.0016V57.6097H183.001V55.5435H188.834V57.6097H190.542V54.0016H189.546V46.3638H183.146ZM184.936 47.9044H187.698V53.9896H183.868C184.135 53.7455 184.408 53.4144 184.608 52.9057C184.781 52.4671 184.936 51.7626 184.936 50.3476V47.9044Z" fill="#006FBA"/>
<path d="M197.085 46.1583C194.098 46.1583 192.022 48.1702 192.022 50.9651C192.022 53.7599 194.099 55.7561 197.085 55.7561C200.072 55.7561 202.148 53.7599 202.148 50.9651C202.148 48.1702 200.073 46.1583 197.085 46.1583ZM197.091 54.1297C195.237 54.1297 193.926 52.8211 193.926 50.9651C193.926 49.1055 195.239 47.7847 197.093 47.7847C198.949 47.7847 200.259 49.1055 200.259 50.9651C200.26 52.8235 198.951 54.1297 197.091 54.1297Z" fill="#006FBA"/>
<path d="M204.084 55.5422L205.848 46.1946H207.131L209.706 52.1976L212.394 46.1946H213.676L215.271 55.5422H213.39L212.536 49.8848L209.934 55.6655H209.419L206.929 49.8848L205.966 55.5422H204.084Z" fill="#006FBA"/>
</svg>
